<svg xmlns="http://www.w3.org/2000/svg" x="0px" y="0px"
width="64" height="64"
viewBox="0 0 172 172"
style=" fill:#000000;"><g fill="none" fill-rule="nonzero" stroke="none" stroke-width="1" stroke-linecap="butt" stroke-linejoin="miter" stroke-miterlimit="10" stroke-dasharray="" stroke-dashoffset="0" font-family="none" font-weight="none" font-size="none" text-anchor="none" style="mix-blend-mode: normal"><path d="M0,172v-172h172v172z" fill="none"></path><g fill="#34cb79"><path d="M86,31.71197c-4.97187,0 -9.27292,2.55313 -11.82605,6.71875l-48.50885,81.02918c-2.55313,4.3 -2.68697,9.53905 -0.13385,13.83905c2.41875,4.3 6.85417,6.98907 11.82605,6.98907h97.15155c4.97188,0 9.54115,-2.5547 11.9599,-6.98907c2.41875,-4.3 2.41927,-9.53905 -0.13385,-13.83905l-48.50885,-81.02918c-2.55313,-4.16562 -6.85417,-6.71875 -11.82605,-6.71875zM86,39.77447c2.01563,0 3.76197,0.9401 4.83697,2.82135l48.64532,81.02917c1.075,1.74688 1.07448,3.89792 0.13385,5.77917c-1.075,1.74687 -2.82345,2.82135 -4.97345,2.82135h-97.2854c-2.01562,0 -3.89845,-1.07448 -4.97345,-2.82135c-1.075,-1.74687 -0.94115,-4.0323 0.13385,-5.77917l48.64532,-81.02917c1.075,-1.74688 2.82135,-2.82135 4.83697,-2.82135zM86,66.24792c-2.28437,0 -4.03125,1.74688 -4.03125,4.03125v28.21875c0,2.28438 1.74688,4.03125 4.03125,4.03125c2.28437,0 4.03125,-1.74687 4.03125,-4.03125v-28.21875c0,-2.28437 -1.74688,-4.03125 -4.03125,-4.03125zM86,108.17188c-2.2264,0 -4.03125,1.80485 -4.03125,4.03125c0,2.2264 1.80485,4.03125 4.03125,4.03125c2.2264,0 4.03125,-1.80485 4.03125,-4.03125c0,-2.2264 -1.80485,-4.03125 -4.03125,-4.03125z"></path></g></g></svg>
